<?xml version="1.0" encoding="iso-8859-1"?>
<!-- Generator: Adobe Illustrator 17.1.0, SVG Export Plug-In . SVG Version: 6.00 Build 0)  -->
<!DOCTYPE svg PUBLIC "-//W3C//DTD SVG 1.1//EN" "http://www.w3.org/Graphics/SVG/1.1/DTD/svg11.dtd">
<svg version="1.1" id="Capa_1" xmlns="http://www.w3.org/2000/svg" xmlns:xlink="http://www.w3.org/1999/xlink" x="0px" y="0px"
	 viewBox="0 0 465 465" style="enable-background:new 0 0 465 465;fill:rgba(255,255,255,0.4);" xml:space="preserve">
<g>
	<path d="M213.623,180.504c2.575-2.854,2.575-7.192,0-10.047c-15.918-17.646-38.665-27.768-62.407-27.768
		s-46.489,10.121-62.407,27.768c-2.575,2.854-2.575,7.192,0,10.047c15.918,17.646,38.665,27.768,62.407,27.768
		S197.705,198.15,213.623,180.504z M151.216,193.271c-17.125,0-33.622-6.412-46.244-17.791
		c12.623-11.379,29.119-17.791,46.244-17.791s33.622,6.412,46.244,17.791C184.837,186.859,168.341,193.271,151.216,193.271z"/>
	<path d="M376.191,180.504c2.575-2.854,2.575-7.192,0-10.047c-15.918-17.646-38.665-27.768-62.407-27.768
		s-46.489,10.121-62.407,27.768c-2.575,2.854-2.575,7.192,0,10.047c15.918,17.646,38.665,27.768,62.407,27.768
		S360.273,198.15,376.191,180.504z M313.784,193.271c-17.125,0-33.622-6.412-46.244-17.791
		c12.623-11.379,29.119-17.791,46.244-17.791s33.622,6.412,46.244,17.791C347.406,186.859,330.909,193.271,313.784,193.271z"/>
	<path d="M263.055,320.754h-61.109c-4.142,0-7.5,3.357-7.5,7.5s3.358,7.5,7.5,7.5h61.109c4.142,0,7.5-3.357,7.5-7.5
		S267.197,320.754,263.055,320.754z"/>
	<path d="M211.632,277.329c0,4.143,3.358,7.5,7.5,7.5h26.735c4.142,0,7.5-3.357,7.5-7.5s-3.358-7.5-7.5-7.5h-26.735
		C214.99,269.829,211.632,273.187,211.632,277.329z"/>
	<path d="M465,110.704c0-14.017-5.954-27.483-17.695-40.026c-2.831-3.025-7.577-3.18-10.601-0.351
		c-3.024,2.831-3.181,7.577-0.35,10.601C445.409,90.601,450,100.619,450,110.704c0,16.635-12.476,32.995-35.588,47.204
		c3.751-59.887,6.755-114.208,7.004-118.718c0.188-3.408-1.95-6.514-5.2-7.556C413.14,30.649,339.655,7.5,232.5,7.5
		S51.86,30.649,48.785,31.635c-3.25,1.042-5.388,4.147-5.2,7.556c0.248,4.509,3.253,58.831,7.004,118.717
		C27.476,143.699,15,127.339,15,110.704c0-10.085,4.591-20.104,13.646-29.776c2.831-3.023,2.674-7.77-0.35-10.601
		c-3.023-2.829-7.77-2.675-10.601,0.351C5.954,83.221,0,96.688,0,110.704c0,24.253,18.247,47.06,51.723,65.126
		c2.141,33.43,4.449,67.216,6.586,93.922c-0.067,0.81,0.003,1.621,0.193,2.404c1.44,17.787,2.796,32.229,3.965,41.005
		c3.342,25.102,12.708,61.332,38.354,91.393C130.795,439.687,175.098,457.5,232.5,457.5s101.705-17.813,131.678-52.946
		c25.646-30.061,35.013-66.291,38.354-91.393c1.168-8.776,2.525-23.217,3.964-41.004c0.191-0.783,0.261-1.595,0.194-2.405
		c2.137-26.707,4.445-60.492,6.586-93.921C446.753,157.764,465,134.957,465,110.704z M77.336,311.183
		c-0.79-5.935-1.675-14.641-2.619-25.316c44.533,34.042,73.283,85.107,79.097,140.808C98.729,400.354,82.097,346.94,77.336,311.183z
		 M311.187,426.673c1.343-12.967,3.91-25.763,7.685-38.174c1.206-3.963-1.03-8.152-4.993-9.358c-3.963-1.204-8.153,1.03-9.358,4.993
		c-4.818,15.841-7.798,32.259-8.917,48.875c-17.571,5.986-38.399,9.492-63.105,9.492c-24.705,0-45.532-3.506-63.103-9.491
		c-4.549-67.248-40.204-129.015-96.312-166.765c-1.894-23.989-3.927-53.525-5.856-83.297c0.227,0.021,0.454,0.036,0.68,0.036
		c2.854,0,5.583-1.639,6.837-4.408c1.708-3.773,0.034-8.218-3.739-9.926c-1.651-0.748-3.256-1.507-4.839-2.271
		c-3.408-53.765-6.319-105.026-7.276-122.075C77.877,38.999,144.068,22.5,232.5,22.5c88.301,0,154.604,16.506,173.607,21.805
		c-0.957,17.057-3.869,68.313-7.276,122.072c-1.583,0.765-3.188,1.524-4.838,2.271c-3.773,1.708-5.448,6.152-3.739,9.926
		c1.254,2.77,3.982,4.408,6.837,4.408c0.226,0,0.453-0.015,0.679-0.036c-1.929,29.777-3.962,59.316-5.856,83.308
		c-32.365,21.77-58.353,51.694-75.265,86.806c-1.797,3.732-0.229,8.215,3.503,10.012c1.049,0.506,2.157,0.745,3.249,0.745
		c2.791,0,5.471-1.565,6.763-4.247c13.972-29.011,34.599-54.222,60.12-73.708c-0.944,10.677-1.829,19.385-2.619,25.321
		C382.903,346.939,366.272,400.353,311.187,426.673z"/>
</g>
<g>
</g>
<g>
</g>
<g>
</g>
<g>
</g>
<g>
</g>
<g>
</g>
<g>
</g>
<g>
</g>
<g>
</g>
<g>
</g>
<g>
</g>
<g>
</g>
<g>
</g>
<g>
</g>
<g>
</g>
</svg>
