<?xml version="1.0" encoding="iso-8859-1"?>
<!-- Generator: Adobe Illustrator 19.0.0, SVG Export Plug-In . SVG Version: 6.00 Build 0)  -->
<svg version="1.1" id="Layer_1" xmlns="http://www.w3.org/2000/svg" xmlns:xlink="http://www.w3.org/1999/xlink" x="0px" y="0px"
	 viewBox="0 0 512 512" style="enable-background:new 0 0 512 512;fill:rgba(255,255,255,0.4);" xml:space="preserve">
<g>
	<g>
		<g>
			<path d="M263.314,352.623v-22.517h-15.67v21.876c-20.552-11.959-47.402-9.146-64.988,8.439
				c-20.935,20.936-20.935,55.001,0,75.939l73.346,73.344l73.346-73.345c20.934-20.933,20.934-55-0.001-75.936
				C311.458,342.535,283.992,339.944,263.314,352.623z M318.265,425.279L256,487.544l-62.265-62.264
				c-14.826-14.827-14.826-38.952-0.001-53.778c7.415-7.414,17.15-11.121,26.889-11.121c9.736,0,19.476,3.708,26.887,11.121
				l8.489,8.488l8.489-8.488c14.825-14.827,38.95-14.824,53.776-0.001C333.092,386.329,333.092,410.453,318.265,425.279z"/>
			<path d="M231.833,199.499l11.682-10.445c-5.992-6.702-13.006-12.305-20.846-16.656l-7.604,13.701
				C221.369,189.599,227.011,194.108,231.833,199.499z"/>
			<path d="M236.318,205.112c4.193,5.894,7.333,12.39,9.332,19.307l9.914-2.867l10.731,3.064c1.977-6.924,5.095-13.429,9.269-19.338
				l-12.797-9.043c-2.586,3.658-4.845,7.503-6.767,11.504c-1.959-4.077-4.268-7.991-6.914-11.711L236.318,205.112z"/>
			<rect x="227.896" y="2.298" width="24.195" height="15.67"/>
			<rect x="195.647" y="2.298" width="24.195" height="15.67"/>
			<path d="M37.672,38.284L26.774,27.025c-6.385,6.179-11.779,13.254-16.033,21.025l13.746,7.523
				C27.984,49.185,32.419,43.367,37.672,38.284z"/>
			<path d="M21.326,62.115L6.891,56.019c-3.45,8.168-5.631,16.799-6.483,25.653l15.599,1.502
				C16.705,75.904,18.496,68.819,21.326,62.115z"/>
			<path d="M62.028,22.733l-5.613-14.63c-8.275,3.175-16.008,7.581-22.986,13.096l9.717,12.294
				C48.879,28.96,55.233,25.34,62.028,22.733z"/>
			<path d="M214.619,168.506c-8.276-3.445-17.032-5.453-26.025-5.968l-0.897,15.644c7.227,0.415,14.259,2.027,20.902,4.791
				L214.619,168.506z"/>
			<rect x="163.387" y="2.298" width="24.195" height="15.67"/>
			<path d="M478.774,21.36c-6.961-5.536-14.681-9.965-22.946-13.165l-5.657,14.613c6.787,2.628,13.128,6.267,18.85,10.817
				L478.774,21.36z"/>
			<path d="M15.67,90.444L0,90.497c0.03,8.915,1.394,17.708,4.05,26.136l14.946-4.714C16.814,105.002,15.695,97.776,15.67,90.444z"
				/>
			<path d="M487.615,55.76l13.769-7.482c-4.231-7.786-9.605-14.877-15.972-21.075l-10.93,11.228
				C479.717,43.529,484.137,49.359,487.615,55.76z"/>
			<path d="M496.016,83.388l15.603-1.455c-0.826-8.854-2.982-17.49-6.406-25.671l-14.454,6.05
				C493.57,69.026,495.338,76.118,496.016,83.388z"/>
			<rect x="324.654" y="2.298" width="24.195" height="15.67"/>
			<path d="M303.208,183.053c6.636-2.787,13.662-4.421,20.883-4.859l-0.946-15.642c-8.988,0.544-17.738,2.581-26.005,6.053
				L303.208,183.053z"/>
			<path d="M268.321,189.241l11.712,10.41c4.807-5.407,10.433-9.934,16.727-13.452l-7.647-13.677
				C281.287,176.897,274.292,182.521,268.321,189.241z"/>
			<rect x="260.145" y="2.298" width="24.195" height="15.67"/>
			<rect x="292.405" y="2.298" width="24.195" height="15.67"/>
			<rect x="363.934" y="162.406" width="24.195" height="15.67"/>
			<rect x="396.183" y="162.406" width="24.195" height="15.67"/>
			<rect x="389.163" y="2.298" width="24.195" height="15.67"/>
			<path d="M447.42,5.423c-7.557-2.074-15.4-3.126-23.308-3.126h-2.696v15.67h2.696c6.507,0,12.953,0.864,19.159,2.567L447.42,5.423
				z"/>
			<rect x="356.914" y="2.298" width="24.195" height="15.67"/>
			<path d="M428.02,162.301l0.833,15.648c8.891-0.473,17.607-2.279,25.907-5.368l-5.464-14.687
				C442.483,160.43,435.324,161.913,428.02,162.301z"/>
			<path d="M478.825,137.328l11.865,10.235c5.807-6.732,10.541-14.267,14.07-22.394l-14.373-6.242
				C487.489,125.603,483.598,131.794,478.825,137.328z"/>
			<path d="M21.528,118.729l-14.39,6.201c3.505,8.137,8.217,15.687,14.006,22.438l11.896-10.2
				C28.28,131.617,24.408,125.414,21.528,118.729z"/>
			<path d="M496.33,90.659c-0.047,7.33-1.188,14.552-3.39,21.467l14.932,4.756c2.682-8.422,4.071-17.212,4.129-26.123L496.33,90.659
				z"/>
			<path d="M455.966,155.02l6.921,14.058c7.95-3.914,15.251-9,21.7-15.119l-10.783-11.369
				C468.5,147.622,462.498,151.803,455.966,155.02z"/>
			<rect x="331.674" y="162.406" width="24.195" height="15.67"/>
			<path d="M27.227,153.784c6.43,6.135,13.716,11.244,21.654,15.18l6.964-14.038c-6.524-3.236-12.513-7.434-17.799-12.479
				L27.227,153.784z"/>
			<rect x="98.879" y="2.298" width="24.195" height="15.67"/>
			<rect x="91.388" y="162.406" width="24.195" height="15.67"/>
			<path d="M57.001,172.491c8.291,3.112,17,4.943,25.888,5.444l0.88-15.646c-7.303-0.411-14.456-1.914-21.261-4.468L57.001,172.491z
				"/>
			<path d="M64.832,5.355l4.101,15.124c6.146-1.666,12.524-2.51,18.957-2.51h2.929V2.298h-2.93
				C80.071,2.298,72.315,3.326,64.832,5.355z"/>
			<rect x="155.897" y="162.406" width="24.195" height="15.67"/>
			<rect x="123.648" y="162.406" width="24.195" height="15.67"/>
			<rect x="131.138" y="2.298" width="24.195" height="15.67"/>
			<rect x="247.64" y="298.767" width="15.67" height="24.028"/>
			<path d="M263.314,272.986c9.582-3.094,16.533-12.095,16.533-22.693c0-13.148-10.697-23.846-23.846-23.846
				c-13.148,0-23.846,10.698-23.846,23.846c0,10.209,6.451,18.936,15.488,22.33v17.787h15.67V272.986z M256.001,258.468
				c-4.508,0-8.176-3.668-8.176-8.175c0-3.94,2.801-7.235,6.515-8.005h3.322c3.715,0.77,6.515,4.066,6.515,8.005
				C264.177,254.8,260.509,258.468,256.001,258.468z"/>
			<path d="M292.589,371.819v15.67c4.145,0,7.518,3.373,7.518,7.518h15.67C315.776,382.221,305.375,371.819,292.589,371.819z"/>
		</g>
	</g>
</g>
<g>
</g>
<g>
</g>
<g>
</g>
<g>
</g>
<g>
</g>
<g>
</g>
<g>
</g>
<g>
</g>
<g>
</g>
<g>
</g>
<g>
</g>
<g>
</g>
<g>
</g>
<g>
</g>
<g>
</g>
</svg>
