<?xml version="1.0" encoding="UTF-8"?>
<!DOCTYPE svg PUBLIC "-//W3C//DTD SVG 1.1//EN" "http://www.w3.org/Graphics/SVG/1.1/DTD/svg11.dtd">
<!-- Creator: CorelDRAW 2019 (64-Bit) -->
<svg xmlns="http://www.w3.org/2000/svg" xml:space="preserve" width="35mm" height="45mm" version="1.1" style="shape-rendering:geometricPrecision; text-rendering:geometricPrecision; image-rendering:optimizeQuality; fill-rule:evenodd; clip-rule:evenodd"
viewBox="0 0 3500 4500"
 xmlns:xlink="http://www.w3.org/1999/xlink"
 xmlns:xodm="http://www.corel.com/coreldraw/odm/2003">
 <defs>
  <style type="text/css">
   <![CDATA[
    .str0 {stroke:black;stroke-width:7.62;stroke-miterlimit:22.9256}
    .fil0 {fill:none}
   ]]>
  </style>
 </defs>
 <g id="Layer_x0020_1">
  <metadata id="CorelCorpID_0Corel-Layer"/>
  <g id="_2927734157600">
   <path class="fil0 str0" d="M2132.97 3102.29c13.13,49.05 28.45,67.21 65.17,137.99 15.26,29.41 7.54,105.07 12.04,144.08 14.07,122.12 85.58,303.95 91.15,373.5 2.27,28.46 -0.2,50.78 -0.24,78.21 -0.03,27.14 12.49,40.12 10.52,68.95 -2.61,38.17 -11.01,25.75 3.38,67.06 8.69,24.98 14.39,29.93 15.51,61.74 0.92,25.98 -3,49.79 7.93,70.8 14.01,26.98 9.71,84.85 67.75,85.13 20.26,0.09 16.93,-4.81 28.93,-9.96 16.29,-6.98 11.13,1.6 27.79,-11.13 15.02,-11.48 3.3,2.12 23.42,-15.4 16.66,-14.5 4.21,7.09 28.61,-22.6 3.81,-4.65 1.6,-1.63 4.45,-4.56 29.7,-30.63 -3.09,-101.83 -21.48,-133.11 -8.76,-14.91 -55.98,-61.19 -60.01,-133.1 -4.53,-80.77 -22.2,-40.09 -18.45,-134.97 3.04,-76.84 18.22,-190.96 22.72,-278.33 4.36,-84.8 -5,-191.75 -33.66,-272.58 -8.42,-23.74 -16.94,-76.44 -20.7,-124.41"/>
   <path class="fil0 str0" d="M2338.12 1885.06c0.28,-4.29 0.59,-8.38 0.95,-12.22 0.86,-9.3 1.96,-17.16 3.35,-22.96 14.66,-61.42 41.41,-104.44 42.81,-189.55 4.6,5.22 7.46,8.37 10.94,14.49 23.19,40.95 64.08,115.58 72.93,157.91 2.04,9.76 4.11,17.17 6.43,23.58 0.33,0.05 0.66,0.1 0.99,0.15"/>
   <path class="fil0 str0" d="M2710.89 2266.31l16.71 24.65c21.18,48.93 6.98,72.97 51.11,158.79 17.57,34.16 1.64,115.19 44.28,124.39 24.49,-4.32 -6.09,-52.46 1.49,-104.11 21.2,-2.07 17.32,7.03 22.08,25.71 5.78,22.76 24.42,103.69 36.71,113.73 13.96,11.41 28.32,1.73 23.91,-20.43 -2.87,-14.33 -7.83,-25.95 -9.64,-42.46 -1.96,-17.91 -0.65,-26.18 -7.06,-43.56l-7.53 -28.62c0.82,-9.75 -1.11,-4.13 3.89,-10.05 5.84,23.55 19.55,49.53 24.09,72.08 5.19,25.83 9.87,57.17 22.98,72.15 21.33,0.6 25.26,-9.91 23.41,-31.35 -1.27,-14.64 -4.5,-35.83 -7.29,-49.72 -7.81,-38.82 -29.17,-74.95 -22.07,-84.7 8.98,4.32 4.89,1.01 9.6,13.02 10.52,26.82 15.17,24.83 21.42,47.59 7.27,26.47 11.57,46.29 24.94,64.11l13 -0.24c17.75,-19.25 7.34,-37.69 2.06,-64.81 -4.44,-22.85 -9.86,-40.48 -18.96,-59.06 -13.97,-28.48 -43.61,-68.79 -46.27,-110.18 33.87,-2 63.89,36.33 113.43,23.69 17.75,-4.53 20.47,-5.79 21.39,-24.07 -6.42,-4.27 -69.37,-27.24 -89.35,-38.6 -76.45,-43.46 -25.04,-16.13 -95.04,-33.86 -19.13,-4.85 -40.74,-23.05 -41.67,-41.77 -13.48,-9.25 -44.16,-79 -53.64,-100.04 -19.64,-43.61 -48.1,-160.18 -73.49,-229.29 -10.25,-27.91 -33.51,-75.31 -50.58,-99.37 -15.72,-22.15 -57.9,-70.69 -65.78,-87.19 -15.67,-32.85 -31.35,-71.71 -40.05,-109.58 -13.43,-58.38 -36.3,-91.9 -36.61,-114.12 -0.32,-23.02 3.53,-47.62 3.27,-72.2 -0.24,-23.67 -8.51,-50.36 -7.35,-66.24 -9.97,-9.97 -27.95,-94.79 -78.6,-132.13 -27.32,-20.14 -141.81,-30.2 -234.32,-74.51 -23.52,-11.25 -53.51,-17.97 -61,-44.09 -14.52,-50.62 6.3,-70.98 23.33,-116 4.69,-12.4 6.71,-29.21 8.55,-42.89 46.53,11.4 37.07,-56.27 41.85,-87.86 3.09,-61.75 -10.35,-45.12 -18.43,-47.97 -2.41,-74.21 8.39,-151.95 -62.87,-216.46 -45.06,-40.8 -153.78,-45.5 -216,-9.27 -3.43,2.36 -8.12,5.31 -10.99,8.18 -6.37,6.27 -3.14,2.5 -7.42,9.96 -23.41,11.03 -37.53,50.51 -48.67,80.92 -12.65,34.52 -10.04,83.86 -7.9,123.68l-4.61 1.51c-11.86,5.79 -7.77,1.06 -9.69,8.37 -7.06,7.18 -8.86,30.05 -3.64,38.54l1.98 50.52c4.94,23.93 9.28,48.98 38.73,39.66 6.05,35.22 10.82,58.34 26.58,84.57 14.06,23.4 14.18,68.99 -1.6,88.99 -14.65,18.55 -124.22,59.57 -155.99,66.04 -26.44,5.37 -64.75,12.93 -89.86,21.06 -50.51,16.37 -61.28,27.2 -89.99,77.64 -2.3,4.05 -4.49,8.46 -6.66,13.13 -0.29,0.62 -0.58,1.24 -0.86,1.87"/>
  </g>
 </g>
</svg>
