<?xml version="1.0" encoding="iso-8859-1"?>
<!-- Generator: Adobe Illustrator 18.0.0, SVG Export Plug-In . SVG Version: 6.00 Build 0)  -->
<!DOCTYPE svg PUBLIC "-//W3C//DTD SVG 1.1//EN" "http://www.w3.org/Graphics/SVG/1.1/DTD/svg11.dtd">
<svg version="1.1" id="Capa_1" xmlns="http://www.w3.org/2000/svg" xmlns:xlink="http://www.w3.org/1999/xlink" x="0px" y="0px"
	 viewBox="0 0 462.919 462.919" style="enable-background:new 0 0 462.919 462.919;fill:rgba(255,255,255,0.4);" xml:space="preserve">
<path d="M383.417,306.472c10.536-31.521,0.941-55.54-2.248-62.162c3.169-16.197-2.561-31.532-2.814-32.201
	c-0.263-0.688-0.673-1.309-1.202-1.819c-0.498-0.48-0.999-0.973-1.505-1.478c-28.604-28.528-37.568-71.621-22.839-109.783
	l10.724-27.783c0.543-1.409,0.421-2.987-0.332-4.296c-12.14-21.084-36.023-24.793-46.338-25.385l-1.521-21.303
	C314.529,8.9,304.97,0,293.579,0H169.34c-11.391,0-20.949,8.9-21.761,20.262l-1.521,21.303
	c-10.314,0.592-34.199,4.301-46.338,25.385c-0.753,1.309-0.875,2.887-0.332,4.295l10.723,27.784
	c14.73,38.161,5.766,81.254-22.839,109.784c-0.505,0.504-1.007,0.996-1.505,1.477c-0.529,0.511-0.939,1.132-1.202,1.819
	c-0.254,0.669-5.983,16.004-2.813,32.201c-3.189,6.622-12.785,30.642-2.249,62.162c-2.191,6.712-8.762,31.149-0.547,62.52
	c-0.879,6.398-4.178,38.005,11.949,63.417v16.295c0,2.5,1.847,4.615,4.323,4.954c45.198,6.175,90.715,9.262,136.232,9.262
	c45.517,0,91.033-3.087,136.232-9.262c2.477-0.339,4.323-2.454,4.323-4.954v-16.295c16.126-25.412,12.827-57.019,11.949-63.416
	C392.18,337.622,385.608,313.184,383.417,306.472z M354.49,363.705c-1.27-17.383-1.556-34.814-0.87-52.22h20.852
	c2.111,7.475,6.33,27.382,0.495,52.22H354.49z M374.51,301.485h-20.383c0.76-12.451,2.002-24.882,3.764-37.263
	c0.389-2.733-1.512-5.265-4.245-5.654l-19.067-2.714c-1.317-0.186-2.646,0.155-3.707,0.951c-1.061,0.797-1.762,1.981-1.948,3.295
	c-1.957,13.749-3.317,27.555-4.111,41.385H236.46V250h136.306c1.176,2.705,2.953,7.47,4.146,13.786
	C379.251,276.181,378.436,288.847,374.51,301.485z M347.312,391.86l-9.167,1.306c-5.545-42.063-5.545-84.641,0-126.703l9.167,1.305
	C341.89,308.968,341.89,350.661,347.312,391.86z M138.586,311.485h87.874v52.22h-88.698
	C138.956,346.32,139.232,328.891,138.586,311.485z M236.46,311.485h87.873c-0.646,17.406-0.37,34.834,0.824,52.22H236.46V311.485z
	 M369.345,216.645c0.999,3.063,3.782,12.903,2.391,23.355H236.46v-52.134h111.72c5.222,10.202,12.041,19.683,20.404,28.024
	C368.839,216.145,369.092,216.396,369.345,216.645z M127.095,135.347l99.365-11.395v53.914H119.258
	C124.566,164.381,127.241,149.936,127.095,135.347z M236.46,123.952l99.364,11.395c-0.146,14.588,2.529,29.034,7.836,42.519H236.46
	V123.952z M353.307,69.963l-9.829,25.464c-3.77,9.768-6.105,19.831-7.099,29.918l-99.92-11.458V91.233
	c2.289,1.097,4.842,1.729,7.545,1.729c29.65,0,56.63-15.804,71.151-41.45C322.494,51.829,342.759,54.169,353.307,69.963z M169.34,10
	h124.239c6.17,0,11.348,4.82,11.787,10.975l1.743,24.413c-12.576,23.209-36.624,37.575-63.104,37.575
	c-4.16,0-7.545-3.385-7.545-7.546V40.37h6.813c17.409,0,34.439-6.047,47.953-17.025c2.143-1.741,2.469-4.891,0.728-7.034
	c-1.741-2.142-4.89-2.469-7.034-0.728c-11.736,9.536-26.526,14.787-41.646,14.787h-23.627c-15.121,0-29.911-5.251-41.646-14.787
	c-2.145-1.74-5.292-1.415-7.034,0.728c-1.741,2.144-1.415,5.293,0.728,7.034c13.513,10.979,30.543,17.025,47.953,17.025h6.813
	v35.047c0,4.161-3.385,7.546-7.546,7.546c-26.481,0-50.529-14.366-63.104-37.575l1.744-24.413C157.993,14.82,163.171,10,169.34,10z
	 M109.612,69.963c10.55-15.798,30.823-18.134,38.151-18.45c14.521,25.646,41.501,41.45,71.151,41.45
	c2.704,0,5.256-0.633,7.546-1.729v22.653l-99.921,11.458c-0.994-10.087-3.329-20.15-7.099-29.918L109.612,69.963z M93.579,216.64
	c0.251-0.246,0.503-0.496,0.756-0.748c8.364-8.342,15.182-17.823,20.405-28.025h111.72V240H91.186
	C89.812,229.595,92.588,219.708,93.579,216.64z M90.163,250H226.46v51.485h-88.353c-0.794-13.83-2.155-27.636-4.111-41.385
	c-0.187-1.313-0.888-2.498-1.948-3.295c-1.061-0.796-2.393-1.137-3.707-0.951l-19.066,2.714c-2.733,0.39-4.634,2.921-4.245,5.654
	c1.762,12.38,3.005,24.812,3.764,37.263H88.407C80.642,276.367,87.264,256.734,90.163,250z M115.607,267.768l9.166-1.305
	c5.546,42.063,5.546,84.641,0,126.703l-9.166-1.306C121.03,350.661,121.03,308.968,115.607,267.768z M108.43,363.705H87.952
	c-5.836-24.844-1.615-44.753,0.494-52.22H109.3C109.986,328.891,109.699,346.322,108.43,363.705z M88.512,373.705h19.071
	c-0.687,7.247-1.527,14.483-2.554,21.701c-0.187,1.313,0.155,2.646,0.952,3.706c0.796,1.061,1.98,1.762,3.294,1.948l19.064,2.714
	c0.235,0.033,0.472,0.05,0.706,0.05c1.076,0,2.131-0.348,3.002-1.001c1.061-0.796,1.762-1.981,1.948-3.295
	c1.222-8.588,2.216-17.199,2.984-25.823h89.481v62.766c-42.315-0.212-84.618-3.12-126.65-8.722
	C87.074,408.296,87.672,383.438,88.512,373.705z M100.904,444.33v-6.349c43.332,5.669,86.943,8.511,130.556,8.511
	c43.612,0,87.223-2.842,130.556-8.511v6.349C275.361,455.781,187.557,455.781,100.904,444.33z M363.11,427.75
	c-42.033,5.602-84.337,8.509-126.651,8.722v-62.766h89.48c0.768,8.625,1.761,17.235,2.984,25.823
	c0.187,1.313,0.888,2.498,1.948,3.295c0.871,0.653,1.926,1.001,3.002,1.001c0.234,0,0.471-0.017,0.706-0.05l19.065-2.714
	c1.313-0.187,2.498-0.888,3.294-1.948c0.797-1.061,1.139-2.394,0.952-3.706c-1.027-7.218-1.868-14.455-2.554-21.701h19.078
	C375.268,383.424,375.888,408.232,363.11,427.75z"/>
<g>
</g>
<g>
</g>
<g>
</g>
<g>
</g>
<g>
</g>
<g>
</g>
<g>
</g>
<g>
</g>
<g>
</g>
<g>
</g>
<g>
</g>
<g>
</g>
<g>
</g>
<g>
</g>
<g>
</g>
</svg>
